<svg width="80" height="97" viewBox="0 0 80 97" fill="none" xmlns="http://www.w3.org/2000/svg">
<path d="M40 0H22.5642V6.15387H40C58.6628 6.15387 73.8461 21.3372 73.8461 40C73.8461 58.6628 58.6628 73.8461 40 73.8461C33.8108 73.8461 27.8179 72.1757 22.5642 69.0089V66.6006C27.6958 69.9807 33.7009 71.7948 40 71.7948C57.5319 71.7948 71.7948 57.5319 71.7948 40C71.7948 22.4681 57.5319 8.20516 40 8.20516H14.359V14.359H40C54.1386 14.359 65.641 25.8617 65.641 40C65.641 54.1382 54.1383 65.641 40 65.641C33.4637 65.641 27.3195 63.2211 22.5642 58.8019V55.8727C26.8818 60.6112 33.0996 63.5897 40 63.5897C53.0074 63.5897 63.5897 53.0074 63.5897 40C63.5897 26.9926 53.0074 16.4103 40 16.4103H0V96.4103H6.15387V22.5642H40C49.614 22.5642 57.4358 30.386 57.4358 40C57.4358 49.614 49.614 57.4358 40 57.4358C30.386 57.4358 22.5642 49.614 22.5642 40V38.9745H16.4103V80.0003H22.5642V76.0073C27.969 78.6303 33.9049 80.0003 40 80.0003C62.0561 80.0003 80 62.0564 80 40.0003C80 17.9442 62.0561 0 40 0Z" fill="#4A3AFF"/>
<path d="M14.3591 30.769H8.20526V88.2048H14.3591V30.769Z" fill="#4A3AFF"/>
</svg>
