<svg width="743" height="667" viewBox="0 0 743 667" fill="none" xmlns="http://www.w3.org/2000/svg">
<g opacity="0.5">
<g opacity="0.89">
<path opacity="0.89" d="M371.5 666.2C576.122 666.2 742 517.29 742 333.6C742 149.91 576.122 1 371.5 1C166.878 1 1 149.91 1 333.6C1 517.29 166.878 666.2 371.5 666.2Z" stroke="#D1CDDE" stroke-width="0.8127" stroke-linecap="round" stroke-linejoin="round"/>
</g>
<g opacity="0.89">
<path opacity="0.89" d="M371.501 641.944C561.2 641.944 714.981 503.894 714.981 333.6C714.981 163.307 561.2 25.2566 371.501 25.2566C181.803 25.2566 28.0215 163.307 28.0215 333.6C28.0215 503.894 181.803 641.944 371.501 641.944Z" stroke="#D1CDDE" stroke-width="0.9493" stroke-linecap="round" stroke-linejoin="round"/>
</g>
<g opacity="0.89">
<path opacity="0.89" d="M371.5 617.688C546.276 617.688 687.96 490.497 687.96 333.6C687.96 176.703 546.276 49.5129 371.5 49.5129C196.725 49.5129 55.041 176.703 55.041 333.6C55.041 490.497 196.725 617.688 371.5 617.688Z" stroke="#D1CDDE" stroke-width="1.0859" stroke-linecap="round" stroke-linejoin="round"/>
</g>
<g opacity="0.89">
<path opacity="0.89" d="M371.499 593.431C531.352 593.431 660.938 477.1 660.938 333.6C660.938 190.099 531.352 73.7688 371.499 73.7688C211.647 73.7688 82.0605 190.099 82.0605 333.6C82.0605 477.1 211.647 593.431 371.499 593.431Z" stroke="#D1CDDE" stroke-width="1.2225" stroke-linecap="round" stroke-linejoin="round"/>
</g>
<g opacity="0.89">
<path opacity="0.89" d="M371.501 569.175C516.43 569.175 633.919 463.704 633.919 333.6C633.919 203.496 516.43 98.0254 371.501 98.0254C226.571 98.0254 109.082 203.496 109.082 333.6C109.082 463.704 226.571 569.175 371.501 569.175Z" stroke="#D1CDDE" stroke-width="1.3591" stroke-linecap="round" stroke-linejoin="round"/>
</g>
<g opacity="0.89">
<path opacity="0.89" d="M371.502 544.918C501.508 544.918 606.9 450.308 606.9 333.6C606.9 216.892 501.508 122.282 371.502 122.282C241.495 122.282 136.104 216.892 136.104 333.6C136.104 450.308 241.495 544.918 371.502 544.918Z" stroke="#D1CDDE" stroke-width="1.4956" stroke-linecap="round" stroke-linejoin="round"/>
</g>
<g opacity="0.89">
<path opacity="0.89" d="M371.499 520.662C486.583 520.662 579.876 436.912 579.876 333.6C579.876 230.289 486.583 146.538 371.499 146.538C256.415 146.538 163.121 230.289 163.121 333.6C163.121 436.912 256.415 520.662 371.499 520.662Z" stroke="#D1CDDE" stroke-width="1.6322" stroke-linecap="round" stroke-linejoin="round"/>
</g>
<g opacity="0.89">
<path opacity="0.89" d="M371.5 496.406C471.661 496.406 552.857 423.515 552.857 333.6C552.857 243.685 471.661 170.795 371.5 170.795C271.339 170.795 190.143 243.685 190.143 333.6C190.143 423.515 271.339 496.406 371.5 496.406Z" stroke="#D1CDDE" stroke-width="1.7688" stroke-linecap="round" stroke-linejoin="round"/>
</g>
<g opacity="0.89">
<path opacity="0.89" d="M371.5 472.19C456.763 472.19 525.883 410.141 525.883 333.6C525.883 257.059 456.763 195.01 371.5 195.01C286.237 195.01 217.117 257.059 217.117 333.6C217.117 410.141 286.237 472.19 371.5 472.19Z" stroke="#D1CDDE" stroke-width="1.9054" stroke-linecap="round" stroke-linejoin="round"/>
</g>
<g opacity="0.89">
<path opacity="0.89" d="M371.501 447.934C441.841 447.934 498.863 396.745 498.863 333.6C498.863 270.455 441.841 219.266 371.501 219.266C301.161 219.266 244.139 270.455 244.139 333.6C244.139 396.745 301.161 447.934 371.501 447.934Z" stroke="#D1CDDE" stroke-width="2.042" stroke-linecap="round" stroke-linejoin="round"/>
</g>
<g opacity="0.89">
<path opacity="0.89" d="M371.5 423.677C426.917 423.677 471.842 383.348 471.842 333.6C471.842 283.851 426.917 243.522 371.5 243.522C316.083 243.522 271.158 283.851 271.158 333.6C271.158 383.348 316.083 423.677 371.5 423.677Z" stroke="#D1CDDE" stroke-width="2.1786" stroke-linecap="round" stroke-linejoin="round"/>
</g>
<g opacity="0.89">
<path opacity="0.89" d="M371.501 399.421C411.996 399.421 444.823 369.952 444.823 333.6C444.823 297.248 411.996 267.779 371.501 267.779C331.007 267.779 298.18 297.248 298.18 333.6C298.18 369.952 331.007 399.421 371.501 399.421Z" stroke="#D1CDDE" stroke-width="2.3152" stroke-linecap="round" stroke-linejoin="round"/>
</g>
</g>
</svg>
